STARTFONT 2.1
COMMENT GFtoPK 2.3 output from METAFONT output 1994.05.19:0936
COMMENT identifier CMSY
COMMENT codingscheme TeX math symbols
COMMENT fontfacebyte
COMMENT Nr: 15335424
COMMENT Checksum 21222c9a
COMMENT 
COMMENT This file is made by pktobdf using the above specified pk file.
COMMENT 
FONT -metafont-cmsy10-medium-r-normal--21-200-75-75-p-116-metafont-fontspecific
SIZE 21 75 75
FONTBOUNDINGBOX 22 36 -1 -20
STARTPROPERTIES 22
FONT_ASCENT 16
FONT_DESCENT 5
DEFAULT_CHAR 65
FOUNDRY "metafont"
FAMILY_NAME "cmsy10"
WEIGHT_NAME "medium"
SLANT "r"
SETWIDTH_NAME "normal"
ADD_STYLE_NAME ""
PIXEL_SIZE 21
POINT_SIZE 200
RESOLUTION_X 75
RESOLUTION_Y 75
SPACING "P"
AVERAGE_WIDTH 116
CHARSET_REGISTRY "Metafont"
CHARSET_ENCODING "FONTSPECIFIC"
AVG_CAPITAL_WIDTH 28
AVG_LOWERCASE_WIDTH 16
COPYRIGHT "Metafont (public domain)"
FULLNAME "cmsy10"
DEVICE_FONT_NAME "cmsy10"
ENDPROPERTIES
CHARS 128
STARTCHAR Gamma
ENCODING 0
SWIDTH 765 0
DWIDTH 16 0
BBX 11 1 2 5
BITMAP
ffe0
ENDCHAR
STARTCHAR Delta
ENCODING 1
SWIDTH 287 0
DWIDTH 6 0
BBX 2 2 2 5
BITMAP
c0
c0
ENDCHAR
STARTCHAR Theta
ENCODING 2
SWIDTH 765 0
DWIDTH 16 0
BBX 9 9 3 1
BITMAP
8080
4100
2200
1400
0800
1400
2200
4100
8080
ENDCHAR
STARTCHAR Lamdba
ENCODING 3
SWIDTH 478 0
DWIDTH 10 0
BBX 7 9 1 1
BITMAP
10
10
92
7c
10
7c
92
10
10
ENDCHAR
STARTCHAR Xi
ENCODING 4
SWIDTH 813 0
DWIDTH 17 0
BBX 14 11 1 0
BITMAP
0300
0300
0000
0000
0000
fffc
0000
0000
0000
0300
0300
ENDCHAR
STARTCHAR Pi
ENCODING 5
SWIDTH 478 0
DWIDTH 10 0
BBX 9 9 0 1
BITMAP
0800
1400
2200
4100
8080
4100
2200
1400
0800
ENDCHAR
STARTCHAR Sigma
ENCODING 6
SWIDTH 765 0
DWIDTH 16 0
BBX 13 13 1 1
BITMAP
0200
0200
0200
0200
0200
0200
fff8
0200
0200
0200
0200
0200
fff8
ENDCHAR
STARTCHAR Upsilon
ENCODING 7
SWIDTH 765 0
DWIDTH 16 0
BBX 13 13 1 -3
BITMAP
fff8
0200
0200
0200
0200
0200
fff8
0200
0200
0200
0200
0200
0200
ENDCHAR
STARTCHAR Phi
ENCODING 8
SWIDTH 765 0
DWIDTH 16 0
BBX 13 13 1 -1
BITMAP
0700
1ac0
2220
4210
4210
8208
fff8
8208
4210
4210
2220
1ac0
0700
ENDCHAR
STARTCHAR Psi
ENCODING 9
SWIDTH 765 0
DWIDTH 16 0
BBX 13 13 1 -1
BITMAP
0700
18c0
2020
4010
4010
8008
fff8
8008
4010
4010
2020
18c0
0700
ENDCHAR
STARTCHAR Omega
ENCODING 10
SWIDTH 765 0
DWIDTH 16 0
BBX 13 13 1 -1
BITMAP
0700
18c0
2020
5050
4890
8508
8208
8508
4890
5050
2020
18c0
0700
ENDCHAR
STARTCHAR arrowup
ENCODING 11
SWIDTH 765 0
DWIDTH 16 0
BBX 13 13 1 -1
BITMAP
0700
18c0
2020
4050
4090
8108
8208
8408
4810
5010
2020
18c0
0700
ENDCHAR
STARTCHAR arrowdown
ENCODING 12
SWIDTH 765 0
DWIDTH 16 0
BBX 13 13 1 -1
BITMAP
0700
18c0
2020
4010
4010
8708
8708
8708
4010
4010
2020
18c0
0700
ENDCHAR
STARTCHAR quotesingle
ENCODING 13
SWIDTH 1004 0
DWIDTH 21 0
BBX 18 18 1 -4
BITMAP
03f000
0c0c00
100200
200100
400080
400080
800040
800040
800040
800040
800040
800040
400080
400080
200100
100200
0c0c00
03f000
ENDCHAR
STARTCHAR exclamdown
ENCODING 14
SWIDTH 478 0
DWIDTH 10 0
BBX 7 7 1 2
BITMAP
38
44
82
82
82
44
38
ENDCHAR
STARTCHAR questiondown
ENCODING 15
SWIDTH 478 0
DWIDTH 10 0
BBX 7 7 1 2
BITMAP
38
7c
fe
fe
fe
7c
38
ENDCHAR
STARTCHAR dotlessi
ENCODING 16
SWIDTH 765 0
DWIDTH 16 0
BBX 13 11 1 0
BITMAP
8008
4010
3060
0f80
0000
0000
0000
0f80
3060
4010
8008
ENDCHAR
STARTCHAR dotlessj
ENCODING 17
SWIDTH 765 0
DWIDTH 16 0
BBX 13 11 1 0
BITMAP
fff8
0000
0000
0000
0000
fff8
0000
0000
0000
0000
fff8
ENDCHAR
STARTCHAR grave
ENCODING 18
SWIDTH 765 0
DWIDTH 16 0
BBX 11 18 2 -5
BITMAP
1fe0
2000
4000
4000
8000
8000
8000
8000
8000
4000
4000
2000
1fe0
0000
0000
0000
0000
ffe0
ENDCHAR
STARTCHAR acute
ENCODING 19
SWIDTH 765 0
DWIDTH 16 0
BBX 11 18 2 -5
BITMAP
ff00
0080
0040
0040
0020
0020
0020
0020
0020
0040
0040
0080
ff00
0000
0000
0000
0000
ffe0
ENDCHAR
STARTCHAR caron
ENCODING 20
SWIDTH 765 0
DWIDTH 16 0
BBX 11 18 2 -5
BITMAP
0020
00c0
0300
0400
1800
6000
8000
6000
1800
0400
0300
00c0
0020
0000
0000
0000
0000
ffe0
ENDCHAR
STARTCHAR breve
ENCODING 21
SWIDTH 765 0
DWIDTH 16 0
BBX 11 18 2 -5
BITMAP
8000
6000
1800
0400
0300
00c0
0020
00c0
0300
0400
1800
6000
8000
0000
0000
0000
0000
ffe0
ENDCHAR
STARTCHAR macron
ENCODING 22
SWIDTH 765 0
DWIDTH 16 0
BBX 11 18 2 -5
BITMAP
0020
0020
0020
0040
0080
0700
f800
0700
0080
0040
0020
0020
0020
0000
0000
0000
0000
ffe0
ENDCHAR
STARTCHAR ring
ENCODING 23
SWIDTH 765 0
DWIDTH 16 0
BBX 11 18 2 -5
BITMAP
8000
8000
8000
4000
2000
1c00
03e0
1c00
2000
4000
8000
8000
8000
0000
0000
0000
0000
ffe0
ENDCHAR
STARTCHAR cedilla
ENCODING 24
SWIDTH 765 0
DWIDTH 16 0
BBX 13 5 1 3
BITMAP
3808
4408
8208
8110
80e0
ENDCHAR
STARTCHAR germandbls
ENCODING 25
SWIDTH 765 0
DWIDTH 16 0
BBX 13 10 1 0
BITMAP
3808
4408
8208
8110
80e0
3808
4408
8208
8110
80e0
ENDCHAR
STARTCHAR ae
ENCODING 26
SWIDTH 765 0
DWIDTH 16 0
BBX 11 13 2 -1
BITMAP
1fe0
2000
4000
4000
8000
8000
8000
8000
8000
4000
4000
2000
1fe0
ENDCHAR
STARTCHAR oe
ENCODING 27
SWIDTH 765 0
DWIDTH 16 0
BBX 11 13 2 -1
BITMAP
ff00
0080
0040
0040
0020
0020
0020
0020
0020
0040
0040
0080
ff00
ENDCHAR
STARTCHAR oslash
ENCODING 28
SWIDTH 1004 0
DWIDTH 21 0
BBX 18 15 1 -2
BITMAP
001040
006180
008200
030c00
0c3000
104000
618000
820000
618000
104000
0c3000
030c00
008200
006180
001040
ENDCHAR
STARTCHAR AE
ENCODING 29
SWIDTH 1004 0
DWIDTH 21 0
BBX 18 15 1 -2
BITMAP
820000
618000
104000
0c3000
030c00
008200
006180
001040
006180
008200
030c00
0c3000
104000
618000
820000
ENDCHAR
STARTCHAR OE
ENCODING 30
SWIDTH 765 0
DWIDTH 16 0
BBX 11 13 2 -2
BITMAP
0020
0020
0020
0040
0080
0700
f800
0700
0080
0040
0020
0020
0020
ENDCHAR
STARTCHAR Oslash
ENCODING 31
SWIDTH 765 0
DWIDTH 16 0
BBX 11 13 2 -2
BITMAP
8000
8000
8000
4000
2000
1c00
03e0
1c00
2000
4000
8000
8000
8000
ENDCHAR
STARTCHAR tilde
ENCODING 32
SWIDTH 1004 0
DWIDTH 21 0
BBX 18 7 1 2
BITMAP
100000
200000
600000
ffffc0
600000
200000
100000
ENDCHAR
STARTCHAR exclam
ENCODING 33
SWIDTH 1004 0
DWIDTH 21 0
BBX 18 7 1 2
BITMAP
000200
000100
000180
ffffc0
000180
000100
000200
ENDCHAR
STARTCHAR quotedblright
ENCODING 34
SWIDTH 478 0
DWIDTH 10 0
BBX 7 18 1 -4
BITMAP
10
38
54
92
10
10
10
10
10
10
10
10
10
10
10
10
10
10
ENDCHAR
STARTCHAR numbersign
ENCODING 35
SWIDTH 478 0
DWIDTH 10 0
BBX 7 18 1 -4
BITMAP
10
10
10
10
10
10
10
10
10
10
10
10
10
10
92
54
38
10
ENDCHAR
STARTCHAR dollar
ENCODING 36
SWIDTH 1004 0
DWIDTH 21 0
BBX 18 7 1 2
BITMAP
100200
200100
600180
ffffc0
600180
200100
100200
ENDCHAR
STARTCHAR percent
ENCODING 37
SWIDTH 1004 0
DWIDTH 21 0
BBX 18 18 1 -4
BITMAP
0007c0
0000c0
000140
000240
000440
000800
001000
002000
004000
008000
010000
020000
040000
080000
100000
200000
400000
800000
ENDCHAR
STARTCHAR ampersand
ENCODING 38
SWIDTH 1004 0
DWIDTH 21 0
BBX 18 18 1 -4
BITMAP
800000
400000
200000
100000
080000
040000
020000
010000
008000
004000
002000
001000
000800
000440
000240
000140
0000c0
0007c0
ENDCHAR
STARTCHAR quoteright
ENCODING 39
SWIDTH 765 0
DWIDTH 16 0
BBX 13 10 1 0
BITMAP
3808
4408
8208
8110
80e0
0000
0000
0000
0000
fff8
ENDCHAR
STARTCHAR parenleft
ENCODING 40
SWIDTH 1004 0
DWIDTH 21 0
BBX 17 11 2 0
BITMAP
040000
080000
1fff80
300000
c00000
c00000
200000
100000
0fff80
080000
040000
ENDCHAR
STARTCHAR parenright
ENCODING 41
SWIDTH 1004 0
DWIDTH 21 0
BBX 17 11 1 0
BITMAP
001000
000800
fffc00
000600
000180
000180
000200
000400
fff800
000800
001000
ENDCHAR
STARTCHAR asterisk
ENCODING 42
SWIDTH 621 0
DWIDTH 13 0
BBX 12 17 0 -4
BITMAP
0600
0600
0900
1080
70e0
9090
1080
1080
1080
1080
1080
1080
1080
1080
1080
1080
1080
ENDCHAR
STARTCHAR plus
ENCODING 43
SWIDTH 621 0
DWIDTH 13 0
BBX 12 17 0 -3
BITMAP
1080
1080
1080
1080
1080
1080
1080
1080
1080
1080
1080
9090
70e0
1080
0900
0600
0600
ENDCHAR
STARTCHAR comma
ENCODING 44
SWIDTH 1004 0
DWIDTH 21 0
BBX 16 11 2 0
BITMAP
0810
1008
1ff8
6006
c003
8001
4002
2004
1ff8
1008
0810
ENDCHAR
STARTCHAR hyphen
ENCODING 45
SWIDTH 1004 0
DWIDTH 21 0
BBX 18 18 1 -4
BITMAP
f80000
c00000
a00000
900000
880000
040000
020000
010000
008000
004000
002000
001000
000800
000400
000200
000100
000080
000040
ENDCHAR
STARTCHAR period
ENCODING 46
SWIDTH 1004 0
DWIDTH 21 0
BBX 18 18 1 -4
BITMAP
000040
000080
000100
000200
000400
000800
001000
002000
004000
008000
010000
020000
040000
880000
900000
a00000
c00000
f80000
ENDCHAR
STARTCHAR slash
ENCODING 47
SWIDTH 765 0
DWIDTH 16 0
BBX 13 9 1 0
BITMAP
3818
4460
8240
8180
8180
8180
8240
4620
3818
ENDCHAR
STARTCHAR 0
ENCODING 48
SWIDTH 287 0
DWIDTH 6 0
BBX 4 11 1 1
BITMAP
30
30
30
60
60
60
40
40
c0
80
80
ENDCHAR
STARTCHAR 1
ENCODING 49
SWIDTH 1004 0
DWIDTH 21 0
BBX 18 9 1 0
BITMAP
3c0f00
421080
812040
80c040
80c040
80c040
812040
421080
3c0f00
ENDCHAR
STARTCHAR 2
ENCODING 50
SWIDTH 669 0
DWIDTH 14 0
BBX 9 13 2 -1
BITMAP
1f80
2000
4000
4000
8000
8000
ff80
8000
8000
4000
4000
2000
1f80
ENDCHAR
STARTCHAR 3
ENCODING 51
SWIDTH 669 0
DWIDTH 14 0
BBX 9 13 2 -1
BITMAP
fc00
0200
0100
0100
0080
0080
ff80
0080
0080
0100
0100
0200
fc00
ENDCHAR
STARTCHAR 4
ENCODING 52
SWIDTH 861 0
DWIDTH 18 0
BBX 15 14 1 0
BITMAP
0100
0280
0280
0440
0440
0820
0820
1010
1010
2008
2008
4004
4004
fffe
ENDCHAR
STARTCHAR 5
ENCODING 53
SWIDTH 861 0
DWIDTH 18 0
BBX 15 14 1 -4
BITMAP
fffe
4004
4004
2008
2008
1010
1010
0820
0820
0440
0440
0280
0280
0100
ENDCHAR
STARTCHAR 6
ENCODING 54
SWIDTH 0 0
DWIDTH 0 0
BBX 9 17 3 -3
BITMAP
0080
0100
0100
0200
0200
0400
0400
0800
0800
0800
1000
1000
2000
2000
4000
4000
8000
ENDCHAR
STARTCHAR 7
ENCODING 55
SWIDTH 0 0
DWIDTH 0 0
BBX 2 7 1 2
BITMAP
80
80
80
c0
80
80
80
ENDCHAR
STARTCHAR 8
ENCODING 56
SWIDTH 574 0
DWIDTH 12 0
BBX 11 14 0 0
BITMAP
8020
8020
4040
4040
3f80
2080
2080
1100
1100
1100
0a00
0a00
0400
0400
ENDCHAR
STARTCHAR 9
ENCODING 57
SWIDTH 574 0
DWIDTH 12 0
BBX 9 14 1 0
BITMAP
ff80
0080
0080
0080
0080
0080
7f80
0080
0080
0080
0080
0080
0080
ff80
ENDCHAR
STARTCHAR colon
ENCODING 58
SWIDTH 669 0
DWIDTH 14 0
BBX 11 6 1 2
BITMAP
ffe0
0020
0020
0020
0020
0020
ENDCHAR
STARTCHAR semicolon
ENCODING 59
SWIDTH 478 0
DWIDTH 10 0
BBX 7 17 1 -1
BITMAP
04
04
3c
4c
08
8a
8a
92
92
92
a2
a2
a2
20
44
78
40
ENDCHAR
STARTCHAR less
ENCODING 60
SWIDTH 717 0
DWIDTH 15 0
BBX 13 14 1 0
BITMAP
71c0
8ae0
8c60
8c30
4c30
2e18
2ff0
af80
4ec0
0cc0
0cc0
ccc0
88d8
7060
ENDCHAR
STARTCHAR equal
ENCODING 61
SWIDTH 717 0
DWIDTH 15 0
BBX 12 14 1 0
BITMAP
3c00
4300
8190
80e0
8000
80e0
6190
1990
0180
00c0
e060
3860
0c60
07c0
ENDCHAR
STARTCHAR greater
ENCODING 62
SWIDTH 765 0
DWIDTH 16 0
BBX 13 13 1 0
BITMAP
fff8
0200
0200
0200
0200
0200
0200
0200
0200
0200
0200
0200
0200
ENDCHAR
STARTCHAR question
ENCODING 63
SWIDTH 765 0
DWIDTH 16 0
BBX 13 13 1 0
BITMAP
0200
0200
0200
0200
0200
0200
0200
0200
0200
0200
0200
0200
fff8
ENDCHAR
STARTCHAR at
ENCODING 64
SWIDTH 621 0
DWIDTH 13 0
BBX 10 14 1 0
BITMAP
8200
c300
c180
61c0
3140
3900
4d00
4d00
4700
4300
6180
20c0
30c0
e040
ENDCHAR
STARTCHAR A
ENCODING 65
SWIDTH 813 0
DWIDTH 17 0
BBX 15 16 0 -1
BITMAP
0008
0018
0038
0038
0078
0058
0098
0098
0118
0318
03f8
041c
0c0c
980c
f00e
6000
ENDCHAR
STARTCHAR B
ENCODING 66
SWIDTH 669 0
DWIDTH 14 0
BBX 12 14 1 0
BITMAP
19e0
3a70
1c30
1c20
1840
1980
37c0
30e0
3060
3060
2060
6040
5880
df00
ENDCHAR
STARTCHAR C
ENCODING 67
SWIDTH 526 0
DWIDTH 11 0
BBX 10 14 0 0
BITMAP
03c0
0cc0
10c0
20c0
6080
6000
4000
c000
c000
c000
c000
e080
7100
3e00
ENDCHAR
STARTCHAR D
ENCODING 68
SWIDTH 765 0
DWIDTH 16 0
BBX 14 14 1 0
BITMAP
1fe0
2678
461c
860c
060c
060c
040c
0c08
0c18
0810
1820
1840
1180
3e00
ENDCHAR
STARTCHAR E
ENCODING 69
SWIDTH 526 0
DWIDTH 11 0
BBX 10 14 1 0
BITMAP
07c0
08c0
1080
3000
3000
3800
1e00
1000
2000
4000
c000
c100
e200
7c00
ENDCHAR
STARTCHAR F
ENCODING 70
SWIDTH 717 0
DWIDTH 15 0
BBX 16 14 0 0
BITMAP
03ff
0cc3
1880
1180
0180
0100
0300
03f0
0200
0600
0400
0c00
c800
f000
ENDCHAR
STARTCHAR G
ENCODING 71
SWIDTH 574 0
DWIDTH 12 0
BBX 10 16 1 -2
BITMAP
07c0
08c0
10c0
2080
6100
4000
c040
c080
c180
c180
c380
e700
7b00
0200
4400
f800
ENDCHAR
STARTCHAR H
ENCODING 72
SWIDTH 861 0
DWIDTH 18 0
BBX 15 14 1 0
BITMAP
1e02
2606
4604
860c
060c
0408
0ff8
0c18
0c10
0830
1830
1830
1032
303c
ENDCHAR
STARTCHAR I
ENCODING 73
SWIDTH 526 0
DWIDTH 11 0
BBX 12 14 0 0
BITMAP
0ff0
3100
6300
0300
0200
0600
0600
0600
0400
0c00
0c00
0880
1180
ff00
ENDCHAR
STARTCHAR J
ENCODING 74
SWIDTH 669 0
DWIDTH 14 0
BBX 15 16 1 -2
BITMAP
00fe
0108
0210
0430
0820
0060
0060
0060
0040
00c0
00c0
2080
4180
e100
6200
7c00
ENDCHAR
STARTCHAR K
ENCODING 75
SWIDTH 765 0
DWIDTH 16 0
BBX 14 14 1 0
BITMAP
181c
3864
1880
1b00
1c00
1c00
1400
3400
3200
2200
6100
6104
4088
c070
ENDCHAR
STARTCHAR L
ENCODING 76
SWIDTH 669 0
DWIDTH 14 0
BBX 11 14 1 0
BITMAP
01e0
0260
0460
0c00
0c00
0800
1800
1800
1000
3000
3000
2020
7e60
c7c0
ENDCHAR
STARTCHAR M
ENCODING 77
SWIDTH 1196 0
DWIDTH 25 0
BBX 21 15 1 -1
BITMAP
030008
030018
030038
038038
058058
0580d0
0581b0
05c330
08c630
08cc30
10f830
107030
b06030
e00038
c00000
ENDCHAR
STARTCHAR N
ENCODING 78
SWIDTH 813 0
DWIDTH 17 0
BBX 20 17 -1 -1
BITMAP
000070
0000f0
030080
030100
030100
078100
058200
058200
05c200
04c200
08c400
08e400
086400
107800
903800
f03800
600000
ENDCHAR
STARTCHAR O
ENCODING 79
SWIDTH 813 0
DWIDTH 17 0
BBX 14 14 2 0
BITMAP
04f0
0938
121c
260c
640c
400c
c00c
c008
c018
c010
e030
6060
7080
3f00
ENDCHAR
STARTCHAR P
ENCODING 80
SWIDTH 669 0
DWIDTH 14 0
BBX 13 15 1 -1
BITMAP
1fe0
2670
4638
8618
0618
0610
0430
0c20
0cc0
0b00
1800
1800
1000
3000
2000
ENDCHAR
STARTCHAR Q
ENCODING 81
SWIDTH 813 0
DWIDTH 17 0
BBX 13 16 3 -2
BITMAP
03e0
0c70
1038
2018
6018
4018
c018
c010
c030
c020
e240
7c80
0300
fc08
1f18
03e0
ENDCHAR
STARTCHAR R
ENCODING 82
SWIDTH 861 0
DWIDTH 18 0
BBX 15 14 1 0
BITMAP
1ff8
261c
460c
860c
0608
0610
0420
0dc0
0dc0
08c0
18e0
1862
1074
3038
ENDCHAR
STARTCHAR S
ENCODING 83
SWIDTH 621 0
DWIDTH 13 0
BBX 11 14 1 0
BITMAP
03e0
0460
0860
1800
1800
1e00
0700
0380
01c0
40c0
c0c0
c080
e300
7c00
ENDCHAR
STARTCHAR T
ENCODING 84
SWIDTH 526 0
DWIDTH 11 0
BBX 14 15 1 0
BITMAP
0004
3ff8
4180
c100
c300
0300
0300
0200
0600
0600
0400
0c00
0800
1000
7e00
ENDCHAR
STARTCHAR U
ENCODING 85
SWIDTH 621 0
DWIDTH 13 0
BBX 14 14 -1 0
BITMAP
3c04
4c0c
0c08
0818
1818
1038
3030
2070
60f0
40a0
c160
c260
ec60
7070
ENDCHAR
STARTCHAR V
ENCODING 86
SWIDTH 621 0
DWIDTH 13 0
BBX 12 15 1 -1
BITMAP
e060
7070
3010
3810
1810
1820
1860
1840
1880
1980
1b00
1600
3c00
3800
2000
ENDCHAR
STARTCHAR W
ENCODING 87
SWIDTH 1004 0
DWIDTH 21 0
BBX 20 15 1 -1
BITMAP
e03060
603070
707810
305810
309810
309820
311c20
330c40
320cc0
340c80
3c0d00
380f00
300e00
200c00
200800
ENDCHAR
STARTCHAR X
ENCODING 88
SWIDTH 717 0
DWIDTH 15 0
BBX 15 14 1 0
BITMAP
0786
0d86
0184
0188
0190
01e0
0180
0380
0d80
1180
2180
4180
c1d0
e0e0
ENDCHAR
STARTCHAR Y
ENCODING 89
SWIDTH 669 0
DWIDTH 14 0
BBX 14 16 1 -2
BITMAP
3c18
4e04
0604
0604
0704
0308
0308
0310
0320
0320
0340
0380
0300
8200
8c00
7000
ENDCHAR
STARTCHAR Z
ENCODING 90
SWIDTH 717 0
DWIDTH 15 0
BBX 13 14 2 0
BITMAP
07c8
08f0
1020
0060
0040
0080
0fc0
0200
0400
0800
1030
2020
7c60
8fc0
ENDCHAR
STARTCHAR bracketleft
ENCODING 91
SWIDTH 669 0
DWIDTH 14 0
BBX 11 13 1 0
BITMAP
8020
8020
8020
8020
8020
8020
8020
8020
8020
8020
4040
2080
1f00
ENDCHAR
STARTCHAR leftdblquote
ENCODING 92
SWIDTH 669 0
DWIDTH 14 0
BBX 11 13 1 0
BITMAP
1f00
2080
4040
8020
8020
8020
8020
8020
8020
8020
8020
8020
8020
ENDCHAR
STARTCHAR bracketright
ENCODING 93
SWIDTH 669 0
DWIDTH 14 0
BBX 11 13 1 0
BITMAP
8020
8020
8020
8420
8420
8420
bfa0
8420
8420
8420
4040
2080
1f00
ENDCHAR
STARTCHAR circumflex
ENCODING 94
SWIDTH 669 0
DWIDTH 14 0
BBX 11 13 1 0
BITMAP
0400
0400
0a00
0a00
1100
1100
2080
2080
2080
4040
4040
8020
8020
ENDCHAR
STARTCHAR dotaccent
ENCODING 95
SWIDTH 669 0
DWIDTH 14 0
BBX 11 13 1 0
BITMAP
8020
8020
4040
4040
2080
2080
2080
1100
1100
0a00
0a00
0400
0400
ENDCHAR
STARTCHAR leftquote
ENCODING 96
SWIDTH 621 0
DWIDTH 13 0
BBX 10 14 1 0
BITMAP
8000
8000
8000
8000
8000
8000
ffc0
8000
8000
8000
8000
8000
8000
8000
ENDCHAR
STARTCHAR a
ENCODING 97
SWIDTH 621 0
DWIDTH 13 0
BBX 9 14 2 0
BITMAP
0080
0080
0080
0080
0080
0080
ff80
0080
0080
0080
0080
0080
0080
0080
ENDCHAR
STARTCHAR b
ENCODING 98
SWIDTH 430 0
DWIDTH 9 0
BBX 5 21 4 -5
BITMAP
80
80
80
80
80
80
80
80
80
80
80
80
80
80
80
80
80
80
80
80
f8
ENDCHAR
STARTCHAR c
ENCODING 99
SWIDTH 430 0
DWIDTH 9 0
BBX 5 21 -1 -5
BITMAP
08
08
08
08
08
08
08
08
08
08
08
08
08
08
08
08
08
08
08
08
f8
ENDCHAR
STARTCHAR d
ENCODING 100
SWIDTH 430 0
DWIDTH 9 0
BBX 5 21 4 -5
BITMAP
f8
80
80
80
80
80
80
80
80
80
80
80
80
80
80
80
80
80
80
80
80
ENDCHAR
STARTCHAR e
ENCODING 101
SWIDTH 430 0
DWIDTH 9 0
BBX 5 21 -1 -5
BITMAP
f8
08
08
08
08
08
08
08
08
08
08
08
08
08
08
08
08
08
08
08
08
ENDCHAR
STARTCHAR f
ENCODING 102
SWIDTH 478 0
DWIDTH 10 0
BBX 7 21 1 -5
BITMAP
06
08
10
10
10
10
10
10
10
20
c0
20
10
10
10
10
10
10
10
08
06
ENDCHAR
STARTCHAR g
ENCODING 103
SWIDTH 478 0
DWIDTH 10 0
BBX 7 21 1 -5
BITMAP
c0
20
10
10
10
10
10
10
10
08
06
08
10
10
10
10
10
10
10
20
c0
ENDCHAR
STARTCHAR h
ENCODING 104
SWIDTH 382 0
DWIDTH 8 0
BBX 5 21 1 -5
BITMAP
08
08
10
10
20
20
20
40
40
80
80
80
40
40
20
20
20
10
10
08
08
ENDCHAR
STARTCHAR i
ENCODING 105
SWIDTH 382 0
DWIDTH 8 0
BBX 5 21 1 -5
BITMAP
80
80
40
40
20
20
20
10
10
08
08
08
10
10
20
20
20
40
40
80
80
ENDCHAR
STARTCHAR j
ENCODING 106
SWIDTH 287 0
DWIDTH 6 0
BBX 1 21 2 -5
BITMAP
80
80
80
80
80
80
80
80
80
80
80
80
80
80
80
80
80
80
80
80
80
ENDCHAR
STARTCHAR k
ENCODING 107
SWIDTH 478 0
DWIDTH 10 0
BBX 7 21 1 -5
BITMAP
82
82
82
82
82
82
82
82
82
82
82
82
82
82
82
82
82
82
82
82
82
ENDCHAR
STARTCHAR l
ENCODING 108
SWIDTH 478 0
DWIDTH 10 0
BBX 7 21 1 -5
BITMAP
10
38
54
92
10
10
10
10
10
10
10
10
10
10
10
10
10
92
54
38
10
ENDCHAR
STARTCHAR m
ENCODING 109
SWIDTH 621 0
DWIDTH 13 0
BBX 12 19 0 -4
BITMAP
0600
0900
1080
70e0
9090
1080
1080
1080
1080
1080
1080
1080
1080
1080
9090
70e0
1080
0900
0600
ENDCHAR
STARTCHAR n
ENCODING 110
SWIDTH 478 0
DWIDTH 10 0
BBX 7 21 1 -5
BITMAP
80
80
40
40
40
40
20
20
20
10
10
10
08
08
08
04
04
04
04
02
02
ENDCHAR
STARTCHAR o
ENCODING 111
SWIDTH 287 0
DWIDTH 6 0
BBX 3 13 1 -1
BITMAP
c0
20
20
20
20
40
40
40
80
80
80
80
60
ENDCHAR
STARTCHAR p
ENCODING 112
SWIDTH 813 0
DWIDTH 17 0
BBX 15 21 2 -20
BITMAP
0002
0002
0004
0004
0008
0008
0010
0010
0020
0020
0040
4040
a040
2080
1080
1100
1100
0a00
0a00
0c00
0400
ENDCHAR
STARTCHAR q
ENCODING 113
SWIDTH 765 0
DWIDTH 16 0
BBX 15 14 0 0
BITMAP
fc7e
3018
3018
3018
3018
3018
3018
3018
3018
3018
3018
3018
3018
fffe
ENDCHAR
STARTCHAR r
ENCODING 114
SWIDTH 813 0
DWIDTH 17 0
BBX 14 14 1 0
BITMAP
fffc
7ff8
6008
3010
3010
3830
1820
1c20
0c40
0e40
0680
0680
0300
0300
ENDCHAR
STARTCHAR s
ENCODING 115
SWIDTH 430 0
DWIDTH 9 0
BBX 8 18 1 -4
BITMAP
02
05
04
04
04
04
08
08
08
08
08
08
10
10
10
10
90
60
ENDCHAR
STARTCHAR t
ENCODING 116
SWIDTH 669 0
DWIDTH 14 0
BBX 11 13 1 0
BITMAP
8020
8020
8020
8020
8020
8020
8020
8020
8020
8020
8020
8020
ffe0
ENDCHAR
STARTCHAR u
ENCODING 117
SWIDTH 669 0
DWIDTH 14 0
BBX 11 13 1 0
BITMAP
ffe0
8020
8020
8020
8020
8020
8020
8020
8020
8020
8020
8020
8020
ENDCHAR
STARTCHAR v
ENCODING 118
SWIDTH 765 0
DWIDTH 16 0
BBX 12 18 2 -5
BITMAP
fff0
8000
8000
8000
8000
8000
8000
8000
8000
8000
8000
8000
fff0
0000
0000
0000
0000
ffe0
ENDCHAR
STARTCHAR w
ENCODING 119
SWIDTH 765 0
DWIDTH 16 0
BBX 12 18 1 -5
BITMAP
fff0
0010
0010
0010
0010
0010
0010
0010
0010
0010
0010
0010
7ff0
0000
0000
0000
0000
7ff0
ENDCHAR
STARTCHAR x
ENCODING 120
SWIDTH 430 0
DWIDTH 9 0
BBX 6 18 1 -4
BITMAP
30
48
88
80
80
60
70
88
84
84
44
38
18
04
04
44
48
30
ENDCHAR
STARTCHAR y
ENCODING 121
SWIDTH 478 0
DWIDTH 10 0
BBX 7 18 1 -4
BITMAP
10
10
10
10
10
fe
10
10
10
10
10
10
10
10
10
10
10
10
ENDCHAR
STARTCHAR z
ENCODING 122
SWIDTH 478 0
DWIDTH 10 0
BBX 7 18 1 -4
BITMAP
10
10
10
10
fe
10
10
10
10
00
10
10
10
7e
fe
10
10
10
ENDCHAR
STARTCHAR endash
ENCODING 123
SWIDTH 621 0
DWIDTH 13 0
BBX 10 18 1 -4
BITMAP
3fc0
7900
f900
f900
f900
f900
f900
f900
7900
3900
0900
0900
0900
0900
0900
0900
0900
0900
ENDCHAR
STARTCHAR emdash
ENCODING 124
SWIDTH 765 0
DWIDTH 16 0
BBX 13 17 1 -3
BITMAP
0700
0f80
1fc0
1fc0
1fc0
0f80
0f80
7ff0
fff8
fff8
fff8
fff8
7af0
3260
0200
0700
0700
ENDCHAR
STARTCHAR quotedbl
ENCODING 125
SWIDTH 765 0
DWIDTH 16 0
BBX 13 17 1 -3
BITMAP
0200
0500
0500
0880
0880
1040
2020
4010
8008
4010
2020
1040
0880
0880
0500
0500
0200
ENDCHAR
STARTCHAR hungarumlaut
ENCODING 126
SWIDTH 765 0
DWIDTH 16 0
BBX 13 14 1 0
BITMAP
38e0
4510
8208
8208
8008
8008
4010
4010
2020
1040
0880
0500
0200
0200
ENDCHAR
STARTCHAR dieresis
ENCODING 127
SWIDTH 765 0
DWIDTH 16 0
BBX 13 17 1 -3
BITMAP
0200
0700
0700
0f80
1fc0
3fe0
7ff0
7ff0
fff8
fff8
fff8
fff8
faf8
7270
0200
0700
0700
ENDCHAR
ENDFONT
